<svg xmlns="http://www.w3.org/2000/svg" viewBox="0 0 64 64" role="img" aria-label="LEGEND icon">
  <defs>
    <radialGradient id="bg" cx="50%" cy="42%" r="76%">
      <stop offset="0%" stop-color="#0f321f"/>
      <stop offset="52%" stop-color="#07120d"/>
      <stop offset="100%" stop-color="#020303"/>
    </radialGradient>
    <linearGradient id="gold" x1="14" y1="6" x2="51" y2="57" gradientUnits="userSpaceOnUse">
      <stop offset="0" stop-color="#fff2a8"/>
      <stop offset="0.35" stop-color="#ffd369"/>
      <stop offset="0.72" stop-color="#b97816"/>
      <stop offset="1" stop-color="#ffe08a"/>
    </linearGradient>
    <linearGradient id="greenBlade" x1="32" y1="8" x2="32" y2="60" gradientUnits="userSpaceOnUse">
      <stop offset="0" stop-color="#d8ffd0"/>
      <stop offset="0.35" stop-color="#7dffad"/>
      <stop offset="0.72" stop-color="#18c94e"/>
      <stop offset="1" stop-color="#91ff5e"/>
    </linearGradient>
    <filter id="glow" x="-40%" y="-40%" width="180%" height="180%">
      <feGaussianBlur stdDeviation="1.35" result="blur"/>
      <feColorMatrix in="blur" type="matrix" values="0 0 0 0 0.25 0 0 0 0 1 0 0 0 0 0.42 0 0 0 .9 0" result="greenGlow"/>
      <feMerge>
        <feMergeNode in="greenGlow"/>
        <feMergeNode in="SourceGraphic"/>
      </feMerge>
    </filter>
    <filter id="softShadow" x="-35%" y="-35%" width="170%" height="170%">
      <feDropShadow dx="0" dy="2" stdDeviation="1.2" flood-color="#000000" flood-opacity="0.75"/>
    </filter>
  </defs>

  <rect width="64" height="64" rx="13" fill="url(#bg)"/>
  <circle cx="32" cy="32" r="25" fill="none" stroke="#2dff70" stroke-width="1.2" opacity="0.22"/>
  <circle cx="32" cy="32" r="24" fill="none" stroke="url(#gold)" stroke-width="3" opacity="0.9"/>

  <g filter="url(#glow)">
    <path d="M32 5 L37 13 L32 18 L27 13 Z" fill="url(#gold)" stroke="#fff1a6" stroke-width="0.7"/>
    <path d="M32 9 L34.3 13 L32 15.7 L29.7 13 Z" fill="#7dffad"/>
    <path d="M30.5 16 H33.5 V46 L38 51 L32 61 L26 51 L30.5 46 Z" fill="url(#greenBlade)" stroke="#d9ffd0" stroke-width="0.8"/>
    <path d="M21 23 H43 L46 26 L43 29 H21 L18 26 Z" fill="url(#gold)" stroke="#fff1a6" stroke-width="0.7"/>
  </g>

  <g filter="url(#softShadow)">
    <path d="M21 15 H36 C39 15 42 18 42 22 C42 26 39 29 35 29 H29 V42 H45 V52 H15 V42 H21 Z" fill="#231806" opacity="0.85"/>
    <path d="M20 12 H35 C40 12 45 17 45 22 C45 27 41 32 35 32 H30 V40 H48 V54 H14 V40 H20 Z" fill="url(#gold)" stroke="#fff0a4" stroke-width="1.1"/>
    <path d="M29 20 H34 C36 20 37 21 37 23 C37 25 36 26 34 26 H29 Z" fill="#122217" opacity="0.8"/>
    <path d="M31.7 14 V52" stroke="#7dffad" stroke-width="2.2" opacity="0.65"/>
  </g>

  <g filter="url(#glow)">
    <path d="M10 32 L15 27 L20 32 L15 37 Z" fill="none" stroke="url(#gold)" stroke-width="2"/>
    <path d="M13.5 32 L17 29.5 L15.5 32 L17 34.5 Z" fill="#7dffad"/>
    <path d="M54 32 L49 27 L44 32 L49 37 Z" fill="none" stroke="url(#gold)" stroke-width="2"/>
    <path d="M50.5 32 L47 29.5 L48.5 32 L47 34.5 Z" fill="#7dffad"/>
  </g>

  <path d="M18 10 C11 15 7 23 7 32 C7 41 11 49 18 54" fill="none" stroke="#ffd369" stroke-width="1.2" opacity="0.45"/>
  <path d="M46 10 C53 15 57 23 57 32 C57 41 53 49 46 54" fill="none" stroke="#ffd369" stroke-width="1.2" opacity="0.45"/>
</svg>
